PathFileType	4	(X/Y/Z)	../Python\running\Running04\task.trc
DataRate	CameraRate	NumFrames	NumMarkers	Units	OrigDataRate	OrigDataStartFrame	OrigNumFrames
200.000000	200.000000	5	30	mm	200.000000	169	226
Frame#	Time	C7			RBAK			CLAV			STRN			RASI			LASI			PE01			RTH2			RTH3			RHEE			RD5M			RTOE			LTH2			LTH3			LTB2			LTB3			LHEE			LTOE			LD5M			RTH1			LPSI			RTB2			PE03			RPSI			PE02			RTB1			RTB3			T10			LTH1			LTB1			
		X1	Y1	Z1	X2	Y2	Z2	X3	Y3	Z3	X4	Y4	Z4	X5	Y5	Z5	X6	Y6	Z6	X7	Y7	Z7	X8	Y8	Z8	X9	Y9	Z9	X10	Y10	Z10	X11	Y11	Z11	X12	Y12	Z12	X13	Y13	Z13	X14	Y14	Z14	X15	Y15	Z15	X16	Y16	Z16	X17	Y17	Z17	X18	Y18	Z18	X19	Y19	Z19	X20	Y20	Z20	X21	Y21	Z21	X22	Y22	Z22	X23	Y23	Z23	X24	Y24	Z24	X25	Y25	Z25	X26	Y26	Z26	X27	Y27	Z27	X28	Y28	Z28	X29	Y29	Z29	X30	Y30	Z30	

170	0.845	1266.439086914063	1320.953857421875	115.015739440918	1264.263916015625	1252.30908203125	253.4877929687501	1377.829345703125	1221.928955078125	88.91120910644534	1417.955810546875	1034.84033203125	107.0248336791993	1371.733764648438	830.0632934570317	271.7675781250001	1366.173583984375	849.7922973632817	47.23095703125001	1189.886474609375	931.4648437500005	181.6618652343751	1246.103881835938	464.222106933594	283.9596557617189	1284.17919921875	512.6351318359377	288.9439392089845	826.0606079101567	329.1195373535157	127.289161682129	823.0029296875005	202.2144012451173	226.6022186279298	846.966674804688	164.4332580566407	188.655014038086	1398.925415039063	544.5078735351565	14.85457038879395	1448.12451171875	606.9193115234377	5.853175163269045	1416.424194335938	212.6782989501954	37.01253509521486	1458.629150390625	239.1611480712892	38.78640365600587	1367.7138671875	42.10169219970705	93.76963806152347	1550.394653320313	34.2125930786133	115.0682525634766	1520.72314453125	16.56575965881348	55.67134475708011	1245.006958007813	542.820495605469	299.4656372070314	1175.0751953125	899.0812988281255	136.4356384277344	1031.079956054688	364.227996826172	243.6583862304689	1163.096435546875	879.9456176757817	147.1050872802735	1181.838623046875	900.1911010742192	220.7192687988282	1162.134521484375	873.1683959960942	197.3552856445314	1084.85205078125	336.0059814453126	252.5817260742189	1009.457092285157	319.4642944335939	233.197967529297	1208.497436523438	1040.799194335938	180.4512634277344	1399.022094726563	604.756774902344	0.159927174448967	1428.147216796875	289.8309936523439	22.08696174621583	
171	0.85	1282.7060546875	1317.91650390625	113.8172988891602	1279.028930664063	1249.37451171875	252.3189239501954	1394.331176757813	1217.807861328125	88.92663574218753	1434.05126953125	1029.964233398438	107.5845031738282	1387.818237304688	826.7594604492192	270.540008544922	1381.03466796875	846.9326782226567	45.45984268188478	1204.378662109375	927.3307495117192	182.8537292480469	1269.68017578125	459.6553039550784	284.975555419922	1306.77587890625	508.839782714844	289.7761535644532	850.3435058593755	329.4700317382814	127.8378067016602	848.6296386718755	203.2715911865236	227.9735565185548	872.5746459960942	165.2389221191407	190.2765808105469	1411.438842773438	541.1751098632815	14.36620426177979	1461.3427734375	602.6763916015627	4.412564754486086	1422.57568359375	210.8499298095704	36.97754287719728	1465.622436523438	236.0053558349611	39.46112060546876	1367.120849609375	40.51440429687501	94.272331237793	1550.006958007813	34.75823211669923	115.5900421142579	1520.587036132813	17.19858551025391	55.78003311157229	1266.962158203125	538.322204589844	299.9789123535157	1190.043090820313	895.383911132813	137.1624603271485	1056.591796875	362.1975708007814	244.735565185547	1177.976684570313	875.791137695313	147.9921264648438	1197.102783203125	894.9956054687505	221.5491638183595	1177.463500976563	868.4360351562505	198.1543731689454	1109.975463867188	333.0904846191407	253.7664337158204	1034.423217773438	317.6990356445314	234.1548004150392	1224.1259765625	1037.507202148438	180.1013183593751	1412.233520507813	601.3352050781252	-0.5608773827552798	1437.21240234375	287.6506652832032	21.97985458374024	
172	0.855	1298.974487304688	1314.974365234375	112.6769104003907	1293.697265625	1246.492431640625	251.1727600097657	1410.822631835938	1213.714599609375	89.03247833251956	1450.132934570313	1025.131713867188	108.2052459716797	1403.788696289063	823.4253540039067	269.2244567871095	1395.747802734375	844.2167358398442	43.69101715087892	1218.928466796875	923.4724121093755	184.1648254394532	1293.434936523438	455.3833312988284	285.9281311035157	1329.472778320313	505.3538818359377	290.5648498535157	874.9880371093755	329.3614501953126	128.7215881347657	875.0027465820317	203.7199249267579	229.4773712158204	898.941528320313	165.5450439453126	191.9289703369141	1423.18994140625	537.7554321289065	14.1116590499878	1474.000244140625	598.0574951171877	2.955368995666505	1428.561889648438	209.198211669922	36.93846130371095	1472.35205078125	233.0746002197267	40.16135787963869	1366.565551757813	39.43128585815431	94.78359222412112	1549.612670898438	35.27499771118165	115.9605407714844	1520.361083984375	17.82048225402833	55.923942565918	1289.001586914063	534.0449218750002	300.4538574218751	1204.948608398438	892.0311889648442	137.9924468994141	1082.527709960938	359.9267883300782	245.9629058837892	1192.795043945313	871.960571289063	149.0115509033204	1212.414184570313	890.0372924804692	222.5221405029298	1192.814208984375	864.0181274414067	199.0764007568361	1135.61669921875	330.078094482422	254.8914947509767	1059.915405273438	315.6905212402345	235.1479339599611	1239.708251953125	1034.33544921875	179.752670288086	1424.87939453125	597.758972167969	-1.258615612983704	1445.947998046875	285.5792846679689	21.93291282653809	
173	0.86	1315.245239257813	1312.157958984375	111.6020736694337	1308.280151367188	1243.69970703125	250.0514373779298	1427.298461914063	1209.697875976563	89.23423767089847	1466.194091796875	1020.403198242188	108.8893508911133	1419.646240234375	820.1090698242192	267.8350830078126	1410.323852539063	841.663452148438	41.94407653808595	1233.565185546875	919.9411010742192	185.5522003173829	1317.374755859375	451.4634094238284	286.8101501464845	1352.260009765625	502.2421569824221	291.3074645996095	899.9553833007817	328.7694396972657	129.9436187744141	902.101196289063	203.5318756103517	231.103485107422	926.0581665039067	165.3327026367188	193.5987396240236	1434.273681640625	534.3071289062502	14.0420618057251	1486.1513671875	593.2097167968752	1.628067255020142	1434.374877929688	207.7064361572267	36.89713287353517	1478.812744140625	230.355194091797	40.86645507812501	1366.099243164063	38.80378341674806	95.2565612792969	1549.263916015626	35.70344543457033	116.2069320678712	1520.10693359375	18.3716220855713	56.07834243774417	1311.1162109375	530.037048339844	300.8952026367189	1219.799560546875	889.0534667968755	138.9033355712891	1108.859008789063	357.450897216797	247.321014404297	1207.559326171875	868.4957885742192	150.1449890136719	1227.777587890625	885.407592773438	223.6137847900392	1208.19091796875	859.979125976563	200.1080932617189	1161.752685546875	327.016326904297	255.942108154297	1085.906860351563	313.4684448242189	236.1702728271486	1255.244262695313	1031.32177734375	179.3984375000001	1437.02490234375	594.1021728515627	-1.915981769561768	1454.333374023438	283.6039428710939	21.93286514282227	
174	0.865	1331.518676757813	1309.496948242188	110.5997695922852	1322.788940429688	1241.031616210938	248.9561462402345	1443.75390625	1205.807861328125	89.53679656982425	1482.227661132813	1015.839050292969	109.6381149291993	1435.394775390625	816.8608398437505	266.3888549804689	1424.776489257813	839.284057617188	40.23722076416017	1248.309936523438	916.7785644531255	186.9676971435547	1341.502075195313	447.943786621094	287.6143188476564	1375.126953125	499.5566711425784	292.0033264160157	925.2099609375005	327.6681213378907	131.4990234375001	929.8949584960942	202.6890716552736	232.8395538330079	953.905639648438	164.5893249511719	195.2735748291017	1444.814086914063	530.8934326171877	14.09110736846925	1497.86279296875	588.3017578125002	0.5243734121322634	1439.994873046875	206.3565673828126	36.85093688964845	1484.991088867188	227.8277282714845	41.55305862426759	1365.74658203125	38.5674171447754	95.65325164794925	1548.987670898438	36.01551055908205	116.3574905395508	1519.867797851563	18.81491279602051	56.22205352783206	1333.297973632813	526.3416137695315	301.3055419921876	1234.60498046875	886.4679565429692	139.8675689697266	1135.553588867188	354.8106689453126	248.7861175537111	1222.277954101563	865.4280395507817	151.3651885986329	1243.19287109375	881.1903686523442	224.7917327880861	1223.593505859375	856.3708496093755	201.2268066406251	1188.353515625	323.9574279785157	256.9085998535157	1112.366333007813	311.0669250488282	237.2162322998048	1270.73583984375	1028.500366210938	179.0316162109376	1448.745849609375	590.446228027344	-2.527878046035767	1462.34716796875	281.7117614746095	21.96220588684083	
